HIERARCHY
ROOT Hips
{
	OFFSET 0.00000 0.00000 0.00000
	CHANNELS 6 Xposition Yposition Zposition Zrotation Yrotation Xrotation 
	JOINT LHipJoint
	{
		OFFSET 0 0 0
		CHANNELS 3 Zrotation Yrotation Xrotation
		JOINT LeftUpLeg
		{
			OFFSET 1.70593 -1.62653 0.87602
			CHANNELS 3 Zrotation Yrotation Xrotation
			JOINT LeftLeg
			{
				OFFSET 2.32330 -6.38322 0.00000
				CHANNELS 3 Zrotation Yrotation Xrotation
				JOINT LeftFoot
				{
					OFFSET 2.45016 -6.73177 0.00000
					CHANNELS 3 Zrotation Yrotation Xrotation
					JOINT LeftToeBase
					{
						OFFSET 0.13029 -0.35798 1.96980
						CHANNELS 3 Zrotation Yrotation Xrotation
						End Site
						{
							OFFSET 0.00000 -0.00000 1.01270
						}
					}
				}
			}
		}
	}
	JOINT RHipJoint
	{
		OFFSET 0 0 0
		CHANNELS 3 Zrotation Yrotation Xrotation
		JOINT RightUpLeg
		{
			OFFSET -1.80599 -1.62652 0.87602
			CHANNELS 3 Zrotation Yrotation Xrotation
			JOINT RightLeg
			{
				OFFSET -2.45375 -6.74162 0.00000
				CHANNELS 3 Zrotation Yrotation Xrotation
				JOINT RightFoot
				{
					OFFSET -2.45828 -6.75406 0.00000
					CHANNELS 3 Zrotation Yrotation Xrotation
					JOINT RightToeBase
					{
						OFFSET -0.13801 -0.37917 1.88456
						CHANNELS 3 Zrotation Yrotation Xrotation
						End Site
						{
							OFFSET -0.00000 -0.00000 0.97281
						}
					}
				}
			}
		}
	}
	JOINT LowerBack
	{
		OFFSET 0 0 0
		CHANNELS 3 Zrotation Yrotation Xrotation
		JOINT Spine
		{
			OFFSET 0.01003 2.00576 -0.14267
			CHANNELS 3 Zrotation Yrotation Xrotation
			JOINT Spine1
			{
				OFFSET 0.00908 2.01191 0.01660
				CHANNELS 3 Zrotation Yrotation Xrotation
				JOINT Neck
				{
					OFFSET 0 0 0
					CHANNELS 3 Zrotation Yrotation Xrotation
					JOINT Neck1
					{
						OFFSET -0.05849 1.60301 0.18934
						CHANNELS 3 Zrotation Yrotation Xrotation
						JOINT Head
						{
							OFFSET 0.01775 1.59435 -0.07960
							CHANNELS 3 Zrotation Yrotation Xrotation
							End Site
							{
								OFFSET 0.01210 1.70732 -0.05248
							}
						}
					}
				}
				JOINT LeftShoulder
				{
					OFFSET 0 0 0
					CHANNELS 3 Zrotation Yrotation Xrotation
					JOINT LeftArm
					{
						OFFSET 3.15315 1.26460 0.30667
						CHANNELS 3 Zrotation Yrotation Xrotation
						JOINT LeftForeArm
						{
							OFFSET 4.97694 -0.00000 -0.00000
							CHANNELS 3 Zrotation Yrotation Xrotation
							JOINT LeftHand
							{
								OFFSET 3.14391 -0.00000 -0.00000
								CHANNELS 3 Zrotation Yrotation Xrotation
								JOINT LeftFingerBase
								{
									OFFSET 0 0 0
									CHANNELS 3 Zrotation Yrotation Xrotation
									JOINT LeftHandIndex1
									{
										OFFSET 0.59358 -0.00000 -0.00000
										CHANNELS 3 Zrotation Yrotation Xrotation
										End Site
										{
											OFFSET 0.47856 -0.00000 -0.00000
										}
									}
								}
								JOINT LThumb
								{
									OFFSET 0 0 0
									CHANNELS 3 Zrotation Yrotation Xrotation
									End Site
									{
										OFFSET 0.48587 -0.00000 0.48587
									}
								}
							}
						}
					}
				}
				JOINT RightShoulder
				{
					OFFSET 0 0 0
					CHANNELS 3 Zrotation Yrotation Xrotation
					JOINT RightArm
					{
						OFFSET -3.25568 1.35581 0.18982
						CHANNELS 3 Zrotation Yrotation Xrotation
						JOINT RightForeArm
						{
							OFFSET -4.90473 -0.00000 0.00000
							CHANNELS 3 Zrotation Yrotation Xrotation
							JOINT RightHand
							{
								OFFSET -3.21621 0.00006 -0.00004
								CHANNELS 3 Zrotation Yrotation Xrotation
								JOINT RightFingerBase
								{
									OFFSET 0 0 0
									CHANNELS 3 Zrotation Yrotation Xrotation
									JOINT RightHandIndex1
									{
										OFFSET -0.62353 -0.00000 -0.00000
										CHANNELS 3 Zrotation Yrotation Xrotation
										End Site
										{
											OFFSET -0.50270 -0.00000 -0.00000
										}
									}
								}
								JOINT RThumb
								{
									OFFSET 0 0 0
									CHANNELS 3 Zrotation Yrotation Xrotation
									End Site
									{
										OFFSET -0.51038 -0.00000 0.51038
									}
								}
							}
						}
					}
				}
			}
		}
	}
}
MOTION
Frames: 14
Frame Time: 0.142857
0.00 0.00 0.00 0 0 0 0 0 0 -21 0 0 0 0 0 0 0 0 0 0 0 0 0 0 21 0 0 0 0 0 0 0 0 0 0 0 0 0 0 0 0 0 0 0 0 0 0 -16 0 0 21 0 0 11 0 0 0 -8 0 0 0 0 0 0 0 0 0 0 0 0 0 0 0 0 0 0 0 0 8 0 0 0 0 0 0 0 0 0 0 0 0 0 0 0 0 0
0.00 0.00 0.00 3.0135 -1.2681 6.9435 0.0000 0.0000 0.0000 -27.1096 0.8628 -4.7968 1.7549 8.3358 23.7388 0.5812 -12.3667 -15.0530 0.3323 -3.7047 -10.2474 0.0000 0.0000 0.0000 17.4999 13.7870 -40.2405 -5.5218 -13.9484 43.0310 -0.8000 6.9012 -15.9797 -0.3381 3.7364 -10.3362 -5.1027 0.5944 1.0769 0.4532 0.6493 -3.2958 3.3001 0.4964 -4.0781 -4.7369 0.6183 -10.5705 3.4056 1.1489 11.0147 1.9162 0.5928 4.9936 0.0000 0.0000 0.0000 -85.7642 -10.7934 29.7692 15.6754 -25.0786 -3.5073 -0.0000 0.0000 -15.0121 22.1156 -7.8981 -3.1961 -7.1250 0.0000 -0.0000 -3.4255 21.4694 1.9375 0.0000 0.0000 0.0000 93.9175 -19.5655 -11.1136 -8.0144 13.5763 -0.9555 0.0000 0.0000 22.4039 -17.9444 -36.2620 10.8436 7.1250 -0.0000 -0.0000 21.1525 -66.4634 -11.1580
0.00 0.00 0.00 4.5535 1.1570 8.3901 0.0000 0.0000 0.0000 -27.5821 5.0390 4.3696 0.4717 4.4051 12.2192 -0.1239 -13.2053 -7.6082 0.0612 -1.5959 -4.3900 0.0000 0.0000 0.0000 12.5030 17.8119 -42.1223 -1.9692 -8.8017 25.1770 -0.8337 4.8504 -16.3033 -0.0441 1.3560 -3.7289 -7.1230 0.0274 0.2301 0.4621 -0.1142 -3.5997 4.4805 0.1823 -3.8579 -4.8773 0.0216 -10.8464 3.7989 0.3390 10.3426 1.9998 0.2224 4.8648 0.0000 -0.0000 0.0000 -84.2363 -18.6914 33.1900 19.9128 -30.5371 -5.4870 -0.0000 0.0000 -21.4876 23.9399 -8.6499 -3.8201 -7.1250 0.0000 -0.0000 -2.1248 20.5328 1.2454 0.0000 -0.0000 0.0000 96.3396 -25.2721 -30.4118 -6.9111 11.7728 -0.7134 0.0000 0.0000 38.6113 -17.8793 -38.6592 11.3936 7.1250 -0.0000 -0.0000 24.2739 -68.5893 -14.0442
0.00 0.00 0.00 4.2402 6.0944 7.7467 0.0000 0.0000 0.0000 -23.8999 6.0417 24.4558 0.0000 0.0000 0.0000 0.0180 -4.2127 6.6776 0.6195 -5.0371 -14.0143 0.0000 0.0000 0.0000 12.5868 15.8366 -43.9381 -2.4330 -9.7151 28.0590 -0.1638 6.4440 -7.9305 -0.1120 2.1574 -5.9409 -4.2336 -1.4650 1.2344 1.4510 -2.0543 -3.7787 3.9790 -0.8435 -4.4018 -3.9407 0.0470 -10.3744 0.8983 0.5516 8.5535 0.9506 0.1940 4.2407 -0.0000 0.0000 0.0000 -82.3163 -21.3188 33.4130 32.4209 -42.8802 -13.0263 -0.0000 0.0000 -30.4892 29.6605 -13.6146 -7.6349 -7.1250 0.0000 -0.0000 1.5389 14.4098 -1.1079 -0.0000 0.0000 0.0000 98.3291 -33.4570 -45.5918 -6.3628 10.8659 -0.6058 0.0000 0.0000 44.5622 -16.9221 -34.2585 9.7186 7.1250 -0.0000 -0.0000 20.1936 -64.3359 -9.6448
0.00 0.00 0.00 3.2637 5.3597 7.9785 0.0000 0.0000 0.0000 -23.2720 4.6438 19.0635 0.5192 4.6179 12.8220 0.3209 0.3015 10.5986 0.1110 -2.1477 -5.9140 0.0000 0.0000 0.0000 12.6847 18.3491 -44.1932 -3.3460 -11.2351 33.0771 -0.0536 4.3690 -4.7934 -0.0407 -1.3025 3.5816 -2.6041 -1.2877 0.4804 1.9622 -1.7224 -3.9640 3.5599 -0.7274 -4.2236 -4.7629 0.3050 -11.6641 0.7980 1.1126 9.8099 1.1023 0.4180 4.8250 -0.0000 0.0000 0.0000 -82.6426 -18.8337 33.1226 34.7459 -44.6298 -14.6346 -0.0000 0.0000 -30.9468 31.6018 -14.2312 -8.6008 -7.1250 0.0000 -0.0000 2.7800 13.4119 -2.0618 -0.0000 0.0000 0.0000 97.8277 -33.3794 -44.0016 -6.6656 11.3676 -0.6642 0.0000 0.0000 41.6520 -15.4034 -37.6569 9.5544 7.1250 -0.0000 -0.0000 25.7688 -66.9602 -14.0101
0.00 0.00 0.00 1.4878 3.8055 7.5532 0.0000 0.0000 0.0000 -22.0994 2.4454 10.7902 3.0173 10.7230 31.3514 0.7638 9.4283 15.9543 0.1601 2.5784 7.1071 0.0000 0.0000 0.0000 15.7503 19.1821 -43.3871 -4.6975 -13.0349 39.4992 -0.0377 5.1257 -4.7092 -0.1059 -2.0984 5.7778 -0.2124 -0.9692 1.0100 2.8546 -1.1907 -3.8353 3.1297 -0.5278 -4.4584 -5.6207 1.1976 -12.2663 0.8264 2.4872 9.5313 1.3525 1.0672 4.7890 -0.0000 -0.0000 0.0000 -83.7496 -14.8488 31.4803 36.5256 -45.8713 -15.8986 -0.0000 0.0000 -30.2755 30.6724 -13.3424 -7.7937 -7.1250 0.0000 -0.0000 2.2535 14.5721 -1.6153 -0.0000 -0.0000 0.0000 95.5583 -31.0944 -47.1241 -6.3362 10.8217 -0.6008 0.0000 0.0000 47.3251 -15.8381 -35.1244 9.2702 7.1250 -0.0000 -0.0000 22.2983 -64.8319 -10.9527
0.00 0.00 0.00 -0.5703 3.1288 6.4275 0.0000 0.0000 0.0000 -19.6044 0.8609 2.3901 6.9662 15.3034 48.7464 -0.0884 21.0259 14.1002 0.1025 2.0648 5.6847 0.0000 0.0000 0.0000 20.8728 17.5265 -38.0880 -5.1429 -13.5430 41.4366 -0.0230 7.6855 -5.8717 -0.2796 -3.4010 9.3972 1.6073 -0.4031 2.2156 3.4830 -0.3091 -3.5800 2.7290 -0.1406 -4.9366 -4.4772 0.6975 -12.6147 -0.6271 1.8070 9.3171 0.6673 0.6816 4.8284 0.0000 -0.0000 0.0000 -85.6733 -10.3396 31.6438 34.6011 -44.5251 -14.5329 -0.0000 0.0000 -30.2551 29.0128 -10.7832 -5.9239 -7.1250 0.0000 -0.0000 1.3535 17.6955 -0.8783 0.0000 -0.0000 0.0000 94.9555 -26.9046 -42.4752 -6.7153 11.4498 -0.6740 0.0000 0.0000 42.8797 -15.9728 -37.4162 9.8659 7.1250 -0.0000 -0.0000 24.8143 -66.9182 -13.4405
0.00 0.00 0.00 -2.0869 2.3918 6.3536 0.0000 0.0000 0.0000 -16.8451 -1.8911 -13.6070 12.1803 18.4658 66.5593 -0.1196 7.2415 1.4834 0.0881 -1.9143 -5.2689 0.0000 0.0000 0.0000 25.5001 15.8375 -28.2731 -4.5831 -12.8983 38.9891 -0.2666 10.8653 -11.1871 -0.0594 -1.5728 4.3264 2.9114 0.7394 1.1703 3.4715 1.2017 -3.1267 1.8967 0.5696 -3.8973 -4.6436 0.5003 -12.0273 0.0994 1.4579 9.6393 0.8922 0.5484 4.8301 -0.0000 -0.0000 0.0000 -87.9236 -3.7089 34.1835 25.7513 -36.9621 -8.7377 -0.0000 0.0000 -28.0783 26.0995 -10.1549 -4.9364 -7.1250 0.0000 -0.0000 -0.6521 18.7004 0.4086 -0.0000 -0.0000 0.0000 93.7269 -16.9398 -26.0981 -8.1365 13.7738 -0.9844 0.0000 0.0000 27.9249 -18.3816 -36.4620 11.1711 7.1250 -0.0000 -0.0000 20.8740 -66.7737 -11.1530
0.00 0.00 0.00 -4.7345 -1.8849 6.7595 0.0000 0.0000 0.0000 -12.9893 -6.3289 -35.7620 9.5450 17.1459 57.9565 0.6069 1.5178 -15.3430 0.3135 -3.5996 -9.9528 0.0000 0.0000 0.0000 31.1188 7.1795 -12.7027 -3.1390 -10.9167 31.9996 0.3878 19.9197 -10.5302 -0.2368 -3.1319 8.6462 6.2717 3.0296 0.5922 3.2219 4.3079 -3.2955 -0.3197 2.0129 -3.5360 -3.9494 0.7843 -11.2586 -1.2315 1.9070 11.8616 0.4070 0.6656 5.4066 0.0000 0.0000 0.0000 -91.5330 10.0916 21.4188 7.8793 -13.3571 -0.9240 -0.0000 0.0000 -0.8722 17.6257 -8.0223 -2.5388 -7.1250 0.0000 -0.0000 -6.6835 21.5899 3.7806 0.0000 0.0000 0.0000 88.3069 0.4460 12.4196 -19.2989 29.7884 -5.1785 0.0000 -0.0000 -10.7307 -23.4910 -36.2110 14.4002 7.1250 -0.0000 -0.0000 14.3793 -68.0719 -8.0334
0.00 0.00 0.00 -5.2527 -4.8495 7.3412 0.0000 0.0000 0.0000 -11.7493 -7.4490 -38.2478 4.6854 13.0205 39.4453 0.9587 1.2949 -19.0096 0.6899 -5.3100 -14.7949 0.0000 0.0000 0.0000 30.5008 2.7240 -6.2903 -2.2606 -9.3890 27.0200 1.3359 23.5445 -4.7036 -0.3149 -3.6076 9.9753 7.2533 3.8463 0.5274 2.8984 5.3953 -3.2467 -1.2039 2.5267 -3.2816 -3.5969 1.2648 -10.6768 -1.3178 2.4551 10.9639 0.3554 0.9646 5.0259 -0.0000 -0.0000 0.0000 -92.8835 17.0396 3.8757 5.5118 -9.4456 -0.4557 -0.0000 -0.0000 17.0319 16.5605 -8.0699 -2.3904 -7.1250 0.0000 -0.0000 -7.4539 21.5927 4.2228 -0.0000 -0.0000 0.0000 85.4737 9.6889 19.6033 -23.2128 34.3207 -7.2579 0.0000 -0.0000 -14.5026 -23.2159 -37.6146 14.6705 7.1250 -0.0000 -0.0000 16.3484 -69.3186 -9.6124
0.00 0.00 0.00 -6.7330 -8.5084 8.5978 0.0000 0.0000 0.0000 -5.7845 -12.6470 -37.3706 1.4025 7.4913 21.1793 1.1976 3.7283 -22.3228 0.1709 -2.6630 -7.3419 0.0000 0.0000 0.0000 29.9748 0.1624 1.1159 -1.2353 -7.0483 19.8586 1.9111 24.1283 3.7112 -0.7184 -5.4162 15.0997 8.7258 4.9176 -0.1492 2.9040 6.7648 -3.2264 -1.9384 3.1902 -2.6297 -3.9810 1.8307 -9.4100 -0.9297 3.1105 8.6708 0.6118 1.3445 4.5336 -0.0000 -0.0000 0.0000 -93.8769 24.7455 -1.1882 6.0838 -10.4019 -0.5543 -0.0000 -0.0000 14.4440 11.5667 -7.4910 -1.5284 -7.1250 0.0000 -0.0000 -11.0917 22.3772 6.1467 -0.0000 -0.0000 0.0000 82.8752 17.1878 24.4398 -26.7149 37.9060 -9.3235 0.0000 -0.0000 -17.6086 -23.6189 -35.9314 14.3919 7.1250 -0.0000 -0.0000 13.9205 -67.8422 -7.7008
0.00 0.00 0.00 -4.1086 -11.0006 8.9038 0.0000 0.0000 0.0000 -10.5925 -10.7110 -43.5594 3.4417 11.3778 33.5650 0.0562 4.1178 -7.7527 0.0048 0.4486 1.2328 0.0000 0.0000 0.0000 25.1706 4.4327 10.0326 -3.1735 -10.9707 32.1812 -1.0859 -0.9748 19.3992 -0.2211 -3.0267 8.3532 2.6656 5.8309 -2.1498 0.6069 7.7823 -3.7465 -0.8327 3.8326 -2.3922 -1.7279 0.6708 -13.1914 0.0444 1.2340 11.6864 0.4016 0.5266 5.6835 0.0000 0.0000 0.0000 -91.3627 31.3861 -19.8722 3.9409 -6.7885 -0.2338 -0.0000 -0.0000 25.1557 10.1897 -5.7166 -1.0257 -7.1250 0.0000 -0.0000 -12.2221 24.1793 6.2817 0.0000 0.0000 0.0000 79.8177 17.0539 26.8018 -37.3076 46.3913 -16.4624 0.0000 -0.0000 -20.5301 -25.5248 -34.5410 15.1493 7.1250 -0.0000 -0.0000 10.1533 -67.0555 -5.4149
0.00 0.00 0.00 -1.6058 -10.8481 7.4131 0.0000 0.0000 0.0000 -15.4089 -9.8384 -40.8209 4.5930 12.9102 39.0334 0.2148 0.0976 -8.7887 0.0040 -0.4070 -1.1183 0.0000 0.0000 0.0000 22.8409 7.4046 3.7469 -7.0870 -15.4047 49.2026 -1.5415 -13.7843 22.8468 -0.2397 -3.1508 8.6990 0.1179 5.5458 -1.1469 -0.5788 7.3920 -3.3810 -0.7476 3.6830 -2.7450 -1.5930 0.6239 -13.1137 0.5360 1.0699 10.8845 0.5166 0.4944 5.4173 0.0000 -0.0000 0.0000 -89.5072 27.0705 -20.2715 3.3966 -5.8590 -0.1739 -0.0000 -0.0000 26.5716 10.9349 -4.1378 -0.7987 -7.1250 0.0000 -0.0000 -11.8085 25.7396 5.6220 0.0000 -0.0000 0.0000 82.1578 11.1715 26.1890 -40.0796 48.1170 -18.4985 0.0000 -0.0000 -20.8536 -28.1863 -35.4688 17.2733 7.1250 -0.0000 -0.0000 7.4556 -68.7950 -4.2628
0.00 0.00 0.00 0.6784 -11.4260 5.9688 0.0000 0.0000 0.0000 -20.5227 -7.0331 -33.9306 4.4981 12.7952 38.6067 0.4987 -3.0712 -12.6417 0.0021 -0.2987 -0.8208 0.0000 0.0000 0.0000 20.4442 10.5999 -6.2816 -12.1566 -18.4561 66.4843 -0.1695 -9.3777 9.2462 -0.0322 1.1581 -3.1840 -1.8152 5.0461 0.0180 -1.3315 6.6752 -2.7358 -0.5304 3.3583 -2.8702 -1.9509 1.0814 -12.9944 0.8042 1.7136 10.3930 0.7081 0.8162 5.2306 0.0000 0.0000 0.0000 -89.4635 20.6408 -22.7597 4.5534 -7.8293 -0.3118 -0.0000 -0.0000 28.6640 12.8443 -3.4276 -0.7810 -7.1250 0.0000 -0.0000 -10.4399 26.4341 4.7755 0.0000 0.0000 0.0000 85.9821 5.2643 26.3952 -38.0354 46.8619 -16.9915 0.0000 -0.0000 -20.0168 -30.7338 -37.6801 19.9723 7.1250 -0.0000 -0.0000 5.9423 -71.8431 -3.7987
